<svg xmlns="http://www.w3.org/2000/svg" width="242" height="45" fill="none"><path fill="#212121" d="M135.908 13.707c.175-.07.329-.185.446-.333a8.2 8.2 0 0 1 4.968-2.165 16.7 16.7 0 0 1 3.533.113c.675.08 1.358.15 2.024.263a3.35 3.35 0 0 1 2.486 1.799c.37.712.574 1.5.597 2.302.043 1.02-.05 2.043-.279 3.039-.64 3.03-1.298 6.058-1.941 9.087-.347 1.622-.681 3.246-1.022 4.87a5 5 0 0 1-.155.64.92.92 0 0 1-.728.643 2.7 2.7 0 0 1-.598.044c-.46-.019-.919-.058-1.379-.056-.6 0-1.201.037-1.801.056-.219.025-.441.01-.656-.042a.53.53 0 0 1-.438-.564q.003-.27.064-.533.95-4.425 1.921-8.847c.364-1.678.737-3.357 1.077-5.039.122-.602.221-1.215.081-1.843a1.84 1.84 0 0 0-1.131-1.374 4.6 4.6 0 0 0-1.585-.302 11.8 11.8 0 0 0-2.87.194 4.25 4.25 0 0 0-3.105 2.312c-.407.8-.718 1.646-.927 2.52a147 147 0 0 0-1.714 7.602q-.465 2.325-.939 4.65a3 3 0 0 1-.101.408c-.206.618-.539.864-1.203.876-.219 0-.44 0-.66-.027a13 13 0 0 0-2.159-.01c-.26.017-.522.03-.777.023a2.2 2.2 0 0 1-.471-.07.47.47 0 0 1-.371-.486q.012-.295.086-.581c.343-1.584.692-3.163 1.036-4.744q1.045-4.834 2.088-9.67 1.191-5.585 2.39-11.15c.313-1.446.66-2.884.862-4.35q.036-.271.147-.518a.92.92 0 0 1 .831-.597c.26-.012.52 0 .776 0q1.442.079 2.881-.047.15-.016.299 0c.536.07.716.29.722.84a5 5 0 0 1-.194 1.122q-.97 4.54-1.966 9.081c-.046.273-.089.548-.145.864M92.844 24.022h-6.876c-.664.033-1 .311-1.145.96a8 8 0 0 0-.122.719 14 14 0 0 0-.155 2.117q.015.457.135.898a1.67 1.67 0 0 0 .983 1.16c.43.181.886.293 1.352.332 1.476.117 2.96.07 4.427-.138q.423-.06.822-.213a2.69 2.69 0 0 0 1.64-1.605c.075-.187.128-.383.213-.567a1.1 1.1 0 0 1 .817-.662q.327-.073.662-.06c.393.015.77.035 1.156.054a20 20 0 0 0 1.943-.056c.243-.03.489-.009.724.06a.49.49 0 0 1 .369.497 2.2 2.2 0 0 1-.059.6 10.9 10.9 0 0 1-1.42 3.208 6.45 6.45 0 0 1-2.994 2.392 9.7 9.7 0 0 1-2.47.616 43 43 0 0 1-6.797.25 16 16 0 0 1-3.708-.625 5.1 5.1 0 0 1-1.784-.89c-1.052-.837-1.549-1.947-1.6-3.271a28.4 28.4 0 0 1 1.022-8.708c.42-1.522.95-3.011 1.586-4.457 1.096-2.512 3.018-4.058 5.641-4.768.867-.211 1.75-.345 2.64-.4a37 37 0 0 1 4.741-.083c1.115.037 2.223.194 3.304.47q.411.105.81.254a4.19 4.19 0 0 1 2.75 3.157q.134.594.162 1.2a17.5 17.5 0 0 1-.307 3.805q-.232 1.346-.46 2.692c0 .04 0 .08-.018.12-.145.736-.393.953-1.163.955H92.85zm-2.179-3.571h3.34q.549-.008 1.091-.071a.97.97 0 0 0 .9-.904 10 10 0 0 0 .075-1.93c-.055-1.062-.362-1.42-1.4-1.688-1.86-.485-3.733-.393-5.6-.061a3.3 3.3 0 0 0-2.016 1.155c-.68.828-.963 1.813-1.096 2.85-.046.343.114.537.451.608q.299.054.602.047 1.831-.006 3.653-.006M181.443 24.032h-6.467q-.266-.01-.532.02a.8.8 0 0 0-.463.187.84.84 0 0 0-.271.427 3 3 0 0 0-.092.351c-.109.68-.228 1.356-.316 2.037a4.4 4.4 0 0 0 .054 1.45c.061.33.208.637.424.89s.494.442.806.548q.654.22 1.34.285c1.389.196 2.762.043 4.134-.15a3.5 3.5 0 0 0 1.184-.38c.533-.28.947-.752 1.16-1.326.06-.152.102-.307.155-.46.085-.273.252-.511.478-.68s.497-.262.777-.263q.416-.02.829.017a11 11 0 0 0 1.659 0 8.5 8.5 0 0 1 1.186 0c.617.043.824.31.697.917-.341 1.613-.983 3.07-2.132 4.265a7.3 7.3 0 0 1-3.765 2.068q-.727.157-1.468.197c-1.973.131-3.947.253-5.926.157a15.6 15.6 0 0 1-3.735-.62 4.6 4.6 0 0 1-2.36-1.55 4.03 4.03 0 0 1-.915-2.571c-.021-1.62.061-3.24.245-4.848.228-1.848.63-3.669 1.201-5.438a26.5 26.5 0 0 1 1.517-3.624c1.024-2.056 2.66-3.32 4.788-3.953a16 16 0 0 1 2.743-.475 30 30 0 0 1 4.442-.142c1.067.04 2.129.17 3.174.393.582.12 1.145.321 1.674.598a3.8 3.8 0 0 1 1.231.986c.339.412.592.891.742 1.408A9.1 9.1 0 0 1 189.93 18c-.107 1.722-.435 3.408-.766 5.101q-.036.21-.109.408a.76.76 0 0 1-.257.365.73.73 0 0 1-.414.15 9 9 0 0 1-.593.015h-6.348zm-1.952-3.561h4.0889999999999995c.533-.055.767-.304.822-.854.04-.402.083-.804.111-1.208.023-.342.042-.687.037-1.03a1.5 1.5 0 0 0-.254-.83 1.43 1.43 0 0 0-.67-.534 3 3 0 0 0-.676-.216 12.4 12.4 0 0 0-4.419-.11q-.707.096-1.379.342c-.83.296-1.516.91-1.915 1.713a6.1 6.1 0 0 0-.535 1.789q-.018.18 0 .363c.003.112.04.221.106.311s.158.157.262.191c.207.07.425.096.642.08zM73.536 1.793h11.34q.333-.008.665.03c.423.06.601.294.55.708a2.3 2.3 0 0 1-.115.465 15.2 15.2 0 0 0-.705 3.16c-.014.098-.016.193-.039.296a.97.97 0 0 1-.282.555 1 1 0 0 1-.564.272 4 4 0 0 1-.542.044H76.93c-.221 0-.445 0-.666.02a.85.85 0 0 0-.748.532 3 3 0 0 0-.195.626 5430 5430 0 0 0-1.702 7.989q-.68 3.201-1.37 6.403a3002 3002 0 0 1-1.905 8.743c-.087.388-.165.777-.272 1.165-.267.952-.605 1.212-1.594 1.226q-.789 0-1.576-.049c-.644-.04-1.292-.035-1.938-.046h-.607c-.61-.027-.844-.307-.746-.889a7 7 0 0 1 .07-.353q.56-2.567 1.128-5.111c.76-3.46 1.525-6.92 2.273-10.383.572-2.64 1.118-5.288 1.68-7.93.08-.373.184-.74.274-1.108q.05-.173.072-.351a.36.36 0 0 0-.179-.388.4.4 0 0 0-.144-.047q-.3-.045-.605-.04c-1.131-.01-2.263-.02-3.395-.02-1.253 0-2.506.011-3.759.02a2.2 2.2 0 0 1-.72-.069c-.345-.11-.51-.32-.466-.667q.051-.328.155-.642c.319-.992.544-2.012.671-3.045q.022-.18.078-.351a.9.9 0 0 1 .318-.535.93.93 0 0 1 .589-.21c.262-.02.527-.014.783-.014h11.099zM200.255 34.623c-1.597-.053-3.081-.043-4.555-.209a5.7 5.7 0 0 1-2.071-.585c-1.404-.753-2.233-1.904-2.437-3.512a5.9 5.9 0 0 1 .307-2.552 1.04 1.04 0 0 1 1.081-.78h3.727q.12-.001.239.017a.597.597 0 0 1 .582.586q.071.48.097.961.035.483.153.953a1.29 1.29 0 0 0 1.164 1.055q.654.092 1.316.102.778.033 1.552-.053.6-.042 1.201 0a6.5 6.5 0 0 0 1.789-.166c1.181-.332 2.021-1.034 2.38-2.248.133-.442.192-.904.175-1.365-.035-.812-.413-1.32-1.185-1.561a7.3 7.3 0 0 0-1.661-.244c-1.04-.066-2.082-.088-3.12-.16-1.277-.092-2.56-.135-3.828-.341a7.7 7.7 0 0 1-2.135-.607 2.82 2.82 0 0 1-1.68-2.33 9.8 9.8 0 0 1 .062-2.536c.145-1.182.462-2.335.941-3.424.582-1.325 1.449-2.404 2.742-3.1a7.1 7.1 0 0 1 2.165-.69c2.23-.4 4.496-.557 6.76-.468 1.461.056 2.916.218 4.354.482.634.11 1.239.346 1.781.695 1.009.665 1.517 1.633 1.657 2.813q.077.781 0 1.561-.025.21-.087.412a.84.84 0 0 1-.734.622 3 3 0 0 1-.419.02l-3.126.015q-.27.011-.539-.023a.8.8 0 0 1-.533-.253.82.82 0 0 1-.222-.549 4 4 0 0 1 0-.605.866.866 0 0 0-.463-.847 1.7 1.7 0 0 0-.615-.236c-1.227-.195-2.457-.337-3.706-.195-.658.07-1.308.17-1.958.291a2.54 2.54 0 0 0-1.667 1.09c-.465.654-.776 1.366-.735 2.188.033.724.365 1.15 1.065 1.356q.2.062.409.08c1.118.09 2.236.18 3.355.253 1.32.088 2.639.149 3.958.244.76.051 1.51.208 2.228.465q.481.173.919.44a3.3 3.3 0 0 1 1.415 1.747c.158.438.246.9.26 1.366a12.4 12.4 0 0 1-.842 4.844c-.792 2.031-2.241 3.4-4.269 4.146-.774.275-1.579.457-2.396.543a39 39 0 0 1-4.247.263c-.241 0-.48.023-.604.03M117.325 11.35c.678 0 1.356-.019 2.032 0 1.21.037 2.41.235 3.567.59q.648.198 1.238.532c.46.253.858.603 1.167 1.024s.522.904.623 1.415c.091.396.139.801.143 1.207v1.827a2.7 2.7 0 0 1-.12.786 1 1 0 0 1-.286.492 1.03 1.03 0 0 1-.509.265 3.8 3.8 0 0 1-.91.128h-2.772c-.081 0-.163 0-.244-.01-.448-.04-.808-.216-.845-.787-.018-.263-.06-.522-.084-.786-.016-.18 0-.366-.032-.547-.123-.87-.548-1.342-1.415-1.55a11.3 11.3 0 0 0-3.044-.358c-.78.03-1.552.162-2.297.393a3.66 3.66 0 0 0-1.464.811c-.418.38-.74.85-.941 1.375q-.213.506-.354 1.036c-.597 2.276-1.145 4.563-1.517 6.88a9.5 9.5 0 0 0-.177 1.937c.04 1.01.493 1.63 1.451 1.966q.202.075.414.116a10.1 10.1 0 0 0 2.692.175c.612-.055 1.227-.07 1.839-.161a3.1 3.1 0 0 0 1.426-.529c.424-.29.768-.68 1.001-1.134q.28-.545.44-1.133.162-.555.368-1.095a.962.962 0 0 1 .817-.653q.332-.058.67-.076h3.324c.185-.01.37.015.545.075a.437.437 0 0 1 .33.458 1.6 1.6 0 0 1-.094.473q-.17.553-.314 1.113c-.21.827-.512 1.628-.9 2.389-1.11 2.152-2.859 3.513-5.215 4.128-.857.206-1.732.332-2.613.376-1.475.096-2.95.145-4.428.117a16.7 16.7 0 0 1-3.777-.5 6.2 6.2 0 0 1-1.436-.532 3.94 3.94 0 0 1-1.336-1.107 3.9 3.9 0 0 1-.723-1.568 4 4 0 0 1-.12-.787 26 26 0 0 1 .136-4.315c.272-2.195.78-4.355 1.515-6.444q.513-1.466 1.139-2.888a7.7 7.7 0 0 1 1.839-2.637 7.8 7.8 0 0 1 2.763-1.67 14.3 14.3 0 0 1 3.17-.722c1.105-.131 2.21-.09 3.318-.094M229.943 11.664h3.184q.332-.02.652.07a.45.45 0 0 1 .358.367.5.5 0 0 1-.009.182.8.8 0 0 1-.068.29c-.227.458-.293.962-.429 1.446-.087.31-.165.623-.267.928-.237.692-.514.904-1.23.94-.399.02-.801.017-1.2.02h-4.385q-.541.008-1.076.09a1.04 1.04 0 0 0-.896.708 4.6 4.6 0 0 0-.205.693 1226 1226 0 0 0-1.189 5.739c-.349 1.717-.682 3.436-1.032 5.153a3.5 3.5 0 0 0-.077.78.958.958 0 0 0 .725.992c.457.154.94.213 1.42.173 1.122-.082 1.902-.66 2.369-1.686q.246-.585.427-1.193c.12-.364.236-.729.376-1.084.071-.202.197-.379.364-.51.167-.132.367-.213.578-.234a5 5 0 0 1 .596-.06q1.201-.02 2.402-.017c.801.004.991.24.817 1.008-.359 1.575-.776 3.125-1.575 4.553a6.2 6.2 0 0 1-1.67 2 6.1 6.1 0 0 1-2.342 1.125 14.9 14.9 0 0 1-4.159.48 16 16 0 0 1-3.44-.49 4.2 4.2 0 0 1-.951-.373 3.253 3.253 0 0 1-1.704-2.354 4.9 4.9 0 0 1 .048-1.921q.726-3.64 1.476-7.282c.345-1.675.708-3.347 1.063-5.023q.048-.206.062-.416c.019-.586-.239-.852-.828-.862a3.4 3.4 0 0 0-.599.045c-.2.024-.401.006-.594-.05a.574.574 0 0 1-.477-.607q0-.214.068-.415c.149-.481.244-.978.281-1.48.036-.34.132-.671.283-.977a1.272 1.272 0 0 1 1.189-.781c.279 0 .56.023.84.043.634.04.929-.147 1.093-.782.132-.506.216-1.023.311-1.539s.184-1.07.279-1.605q.045-.276.13-.542a.89.89 0 0 1 .799-.634c.118-.012.238 0 .358 0h3.786c.502.04.725.304.626.812-.194 1.008-.411 2.012-.621 3.016-.038.178-.098.352-.126.53-.062.413.119.665.528.724q.269.03.539.023h3.124zM167.325 1.792h2.126q.06 0 .12.01c.579.067.761.3.68.891-.06.436-.143.87-.238 1.299-.102.47-.228.932-.348 1.399-.133.52-.259.635-.773.631-.639 0-1.275.059-1.911.101a5.3 5.3 0 0 0-1.229.243 2.5 2.5 0 0 0-1.546 1.331q-.274.57-.442 1.18c-.159.538-.296 1.082-.443 1.624q-.024.085-.042.175c-.091.533.071.735.624.768.158.01.319 0 .479 0h3.351c.58.033.773.218.688.793a13 13 0 0 1-.489 2.289 1.4 1.4 0 0 1-1.19 1.042q-.325.056-.654.068a71 71 0 0 1-2.034.017 9 9 0 0 0-1.071.084 1.02 1.02 0 0 0-.914.748q-.213.721-.334 1.463c-.458 2.237-.897 4.47-1.353 6.712-.415 2-.856 3.994-1.289 5.99-.174.802-.356 1.603-.533 2.405q-.029.117-.056.233c-.134.498-.387.7-.889.731q-.15.01-.3 0c-1.115-.06-2.232-.021-3.347 0a2 2 0 0 1-.595-.035c-.294-.08-.415-.208-.415-.503q.002-.331.069-.655 1.218-5.635 2.443-11.271l1.016-4.697q.058-.233.079-.472c.024-.484-.181-.713-.655-.739-.139 0-.278.01-.417.01-.4 0-.8.014-1.196 0s-.605-.264-.58-.68a3 3 0 0 1 .058-.294c.174-.823.344-1.647.518-2.47.114-.534.309-.717.85-.751.42-.026.839-.012 1.256-.028q.299-.016.592-.075a.86.86 0 0 0 .688-.601q.128-.369.214-.75c.297-1.37.695-2.717 1.19-4.029a5.91 5.91 0 0 1 3.401-3.511 8 8 0 0 1 1.432-.428c.84-.179 1.697-.256 2.555-.229q.428.036.854-.02M233.167 4.776h-1.031V.782h-1.575V0h4.179v.782h-1.577zM239.358 4.776h-.88L236.855.77h-.021l.082 4.006h-.983V0h1.578l1.39 3.546h.028L240.292 0h1.611v4.776h-.982l.081-4.025h-.033zM57.134 42.1l-.615 1.188H55.33l3.256-6.277h1.691l.76 6.277H59.87l-.147-1.188zm2.146-4.166h-.02l-1.684 3.256h2.067zM65.028 39.997a1 1 0 0 0 .028-.203c0-.157-.056-.246-.161-.281q-.302-.064-.611-.052a2.4 2.4 0 0 0-.786.094q-.242.094-.331.494a1 1 0 0 0-.027.196.22.22 0 0 0 .047.148c.034.042.082.07.136.08q.403.075.812.077h.235q.42.018.66.043.233.024.449.116c.136.055.252.15.331.27a.86.86 0 0 1 .123.49 2.3 2.3 0 0 1-.062.493 1.64 1.64 0 0 1-.321.7 1.4 1.4 0 0 1-.536.405q-.332.14-.69.179-.44.045-.882.042c-.343 0-.613 0-.804-.017a1.9 1.9 0 0 1-.533-.102.73.73 0 0 1-.367-.276.9.9 0 0 1-.13-.514q.005-.276.07-.545h1.098q-.029.16-.034.324a.3.3 0 0 0 .033.19q.048.091.141.136c.224.062.458.086.69.072.284.016.57-.016.842-.097q.24-.098.322-.497.028-.118.033-.238a.28.28 0 0 0-.06-.171.3.3 0 0 0-.154-.101 2.7 2.7 0 0 0-.823-.093q-1.023-.019-1.397-.175a.6.6 0 0 1-.291-.249.6.6 0 0 1-.084-.367q.012-.302.087-.596c.046-.253.15-.493.306-.7.131-.168.308-.298.51-.375q.311-.116.643-.144.344-.03.895-.03c.267 0 .483 0 .67.022q.267.02.52.105a.84.84 0 0 1 .398.273.8.8 0 0 1 .148.501 1.7 1.7 0 0 1-.044.365zM67.181 43.288h-1.01l.898-4.394h.998zm1.097-5.382h-1.01l.177-.895h1.009zM71.058 42.672h-.022c-.064.133-.152.25-.259.34a.9.9 0 0 1-.332.183q-.17.054-.346.072a4 4 0 0 1-.392.017 1.84 1.84 0 0 1-.94-.19q-.313-.193-.313-.736.002-.25.052-.494.148-.773.55-1.07t1.164-.298q.339-.015.671.067a.64.64 0 0 1 .261.157.6.6 0 0 1 .15.285h.03l.105-.578a3 3 0 0 0 .066-.519.4.4 0 0 0-.032-.202.37.37 0 0 0-.12-.153 1.1 1.1 0 0 0-.563-.104c-.2-.011-.399.028-.583.116a.65.65 0 0 0-.189.217.8.8 0 0 0-.086.288h-.941a2.1 2.1 0 0 1 .275-.748c.111-.176.26-.317.433-.407q.257-.128.534-.157.343-.038.688-.035.827 0 1.178.2t.351.811a4 4 0 0 1-.074.707l-.523 2.796h-.94zm-1.31-1.344q-.22.105-.303.532a1.6 1.6 0 0 0-.03.28.35.35 0 0 0 .033.198.3.3 0 0 0 .132.134c.194.063.396.089.597.076.232.013.463-.03.678-.127q.231-.127.314-.561a1 1 0 0 0 .022-.196.4.4 0 0 0-.038-.22.3.3 0 0 0-.148-.145 2.2 2.2 0 0 0-1.257.03M73.706 38.777a.7.7 0 0 0 .426-.122.8.8 0 0 0 .236-.464h-.447l.25-1.18h1.131l-.225 1.031a5 5 0 0 1-.144.556q-.068.197-.196.363a.8.8 0 0 1-.35.243 1.6 1.6 0 0 1-.574.089h-.223zM77.735 39.997q.02-.1.022-.203c0-.157-.048-.246-.14-.281a2.65 2.65 0 0 0-1.221.042c-.14.063-.24.227-.29.494q-.02.097-.022.196a.24.24 0 0 0 .041.148q.047.064.119.08.349.075.703.077h.207q.367.018.575.043.205.024.394.116c.118.056.22.15.29.27a.96.96 0 0 1 .106.49q-.003.25-.053.493c-.043.255-.14.495-.281.7a1.3 1.3 0 0 1-.47.405 1.9 1.9 0 0 1-.602.179q-.384.045-.77.042c-.3 0-.538 0-.71-.017a1.5 1.5 0 0 1-.466-.102.66.66 0 0 1-.32-.276 1 1 0 0 1-.115-.514q.006-.276.062-.545h.96a2.4 2.4 0 0 0-.029.324.35.35 0 0 0 .029.19.3.3 0 0 0 .123.136c.196.062.4.086.603.072.249.016.498-.016.736-.097q.211-.098.281-.497.026-.118.03-.238a.3.3 0 0 0-.052-.171.26.26 0 0 0-.134-.101 2.1 2.1 0 0 0-.72-.093q-.894-.019-1.22-.175a.57.57 0 0 1-.256-.248.66.66 0 0 1-.074-.368q.01-.303.078-.596c.039-.253.13-.493.267-.7a1.05 1.05 0 0 1 .446-.375q.272-.116.562-.144.301-.03.782-.03c.235 0 .43 0 .588.022q.233.02.454.105a.74.74 0 0 1 .347.273.87.87 0 0 1 .13.501 2 2 0 0 1-.038.365zM83.454 42.259h2.69l-.199 1.03H82.15l1.22-6.278h1.108zM89.321 42.672h-.023a1 1 0 0 1-.258.34.9.9 0 0 1-.331.183q-.171.054-.347.072a4 4 0 0 1-.393.017 1.85 1.85 0 0 1-.942-.19q-.313-.193-.312-.736.003-.25.05-.494.152-.772.552-1.07.399-.298 1.164-.298.34-.015.672.067.147.045.262.157a.6.6 0 0 1 .15.285h.029l.105-.578a3 3 0 0 0 .067-.519.4.4 0 0 0-.032-.202.37.37 0 0 0-.12-.153 1.1 1.1 0 0 0-.565-.104c-.2-.011-.399.028-.583.116a.65.65 0 0 0-.188.217.75.75 0 0 0-.087.288h-.945c.045-.269.139-.523.276-.748.11-.176.26-.317.433-.407q.256-.128.535-.157.343-.038.688-.035c.55 0 .946.066 1.18.2q.351.2.351.811a4 4 0 0 1-.074.707l-.523 2.796h-.938zm-1.31-1.344q-.221.105-.303.532a1.5 1.5 0 0 0-.03.28.35.35 0 0 0 .032.198.3.3 0 0 0 .133.134c.194.063.396.089.597.076.232.013.463-.03.679-.127q.231-.127.314-.561a1 1 0 0 0 .022-.196.4.4 0 0 0-.038-.22.3.3 0 0 0-.148-.145 2.2 2.2 0 0 0-1.259.03M93.2 38.774l-.15.594h.042a1.2 1.2 0 0 1 .539-.499c.233-.1.483-.15.735-.146q.49 0 .699.216.11.126.164.286.054.162.043.332a3.2 3.2 0 0 1-.064.585l-.074.361h-.964l.048-.233q.042-.185.05-.377a.33.33 0 0 0-.095-.258.5.5 0 0 0-.33-.086.84.84 0 0 0-.665.244c-.165.2-.27.448-.302.71l-.566 2.785h-1.03l.916-4.514zM95.706 44.996a14 14 0 0 0 1.684-.062c.256-.05.498-.153.707-.304.2-.155.362-.352.472-.576a3.8 3.8 0 0 0 .315-.966l.956-4.312h-1.076l-.102.65h-.035a.76.76 0 0 0-.14-.32.8.8 0 0 0-.273-.23 1.9 1.9 0 0 0-.832-.151 2.5 2.5 0 0 0-.989.168c-.25.102-.468.267-.629.478-.156.21-.276.443-.353.69q-.124.383-.26 1a5 5 0 0 0-.146 1.003 1 1 0 0 0 .065.44c.054.14.14.267.25.372q.314.265 1.087.267c.298.004.594-.044.874-.14.274-.105.508-.289.67-.526h.025l-.179.822a2.4 2.4 0 0 1-.157.465.7.7 0 0 1-.226.275.9.9 0 0 1-.364.14 3 3 0 0 1-.57.042 1.4 1.4 0 0 1-.56-.079.32.32 0 0 1-.133-.134.3.3 0 0 1-.032-.183q.003-.146.042-.288h-1.006q-.08.27-.087.552a.9.9 0 0 0 .117.473.74.74 0 0 0 .329.284c.155.071.322.117.493.136m2.662-4.176q-.104.486-.18.737-.056.239-.194.446a.86.86 0 0 1-.384.28c-.202.068-.415.1-.629.094a.93.93 0 0 1-.597-.152.6.6 0 0 1-.17-.455q.035-.47.157-.93v-.008a4 4 0 0 1 .195-.666c.053-.14.133-.27.236-.382.088-.091.2-.157.324-.19q.241-.06.49-.053.485-.002.683.152a.57.57 0 0 1 .195.477q-.021.335-.107.66zM104.076 41.816a2.3 2.3 0 0 1-.322.813c-.128.19-.306.343-.516.442a2.2 2.2 0 0 1-.673.18q-.475.041-.951.037-.98 0-1.377-.26c-.264-.173-.398-.47-.398-.906q.024-.557.161-1.099.109-.548.306-1.073c.098-.258.25-.492.446-.689.203-.192.452-.331.725-.405.367-.096.747-.14 1.127-.132q1.014-.001 1.406.244.393.243.394.88-.033.69-.201 1.362h-3.15a4.5 4.5 0 0 0-.12.758.42.42 0 0 0 .182.395c.21.095.442.134.673.115.279.015.56-.021.826-.107q.257-.105.362-.547zm-.821-1.295q.065-.277.079-.562a.33.33 0 0 0-.184-.348 2.2 2.2 0 0 0-.715-.077 3 3 0 0 0-.576.042.7.7 0 0 0-.323.15.75.75 0 0 0-.188.284 4 4 0 0 0-.138.511zM107.832 39.987q.023-.101.026-.204c0-.157-.055-.247-.161-.282a3.45 3.45 0 0 0-1.397.043q-.243.094-.331.495a1 1 0 0 0-.026.196.224.224 0 0 0 .182.23q.398.075.804.077h.235c.28.01.499.027.66.042q.234.025.449.117c.136.055.251.15.331.272a.86.86 0 0 1 .122.49 2.2 2.2 0 0 1-.061.495 1.6 1.6 0 0 1-.322.703 1.4 1.4 0 0 1-.535.405q-.331.142-.691.18-.439.045-.881.042c-.343 0-.613 0-.805-.017a1.9 1.9 0 0 1-.532-.102.73.73 0 0 1-.362-.263.9.9 0 0 1-.131-.515q.006-.278.07-.547h1.1a2 2 0 0 0-.035.325.31.31 0 0 0 .173.327q.34.093.691.072c.284.016.569-.017.841-.097q.243-.098.322-.499.029-.117.035-.239a.3.3 0 0 0-.06-.171.3.3 0 0 0-.154-.102 2.7 2.7 0 0 0-.825-.093q-1.022-.018-1.397-.176a.6.6 0 0 1-.29-.249.6.6 0 0 1-.084-.369q.01-.302.086-.597c.046-.254.151-.494.306-.703.132-.168.308-.298.51-.375q.311-.118.644-.145.344-.03.894-.03c.267 0 .491 0 .671.022q.267.02.52.105a.83.83 0 0 1 .397.274.8.8 0 0 1 .148.503 1.7 1.7 0 0 1-.043.366zM109.149 39.091h.546l.205-.94h1.041l-.208.94h1.661l-.174.759h-1.659l-.471 2.125v.016a1.7 1.7 0 0 0-.048.3.2.2 0 0 0 .082.182.54.54 0 0 0 .289.055q.354.001.483-.185c.106-.177.177-.372.21-.574l.026-.117h.913q-.083.41-.244.798c-.076.184-.191.35-.339.489-.14.125-.31.216-.495.265q-.355.09-.723.083-.7 0-.986-.159-.286-.158-.285-.582.008-.285.074-.561l.468-2.135h-.545zM116.591 41.272l-.068.288q-.029.142-.032.288a.36.36 0 0 0 .266.388c.337.07.682.097 1.026.082q.335.005.667-.041a1 1 0 0 0 .401-.145.67.67 0 0 0 .229-.271q.095-.221.137-.456a1.5 1.5 0 0 0 .043-.322q0-.304-.204-.382a2.6 2.6 0 0 0-.731-.095l-.343-.016c-.038 0-.113-.012-.224-.017a9 9 0 0 1-.809-.067 2 2 0 0 1-.538-.152.83.83 0 0 1-.387-.338 1.13 1.13 0 0 1-.143-.607q.007-.33.084-.652c.063-.348.197-.68.395-.974.16-.227.377-.408.631-.524.255-.112.526-.182.804-.207q.438-.04 1.132-.04.515 0 .845.028.31.026.601.132a.9.9 0 0 1 .425.325c.112.183.165.394.154.607a3 3 0 0 1-.068.568l-.042.198h-1.199l.042-.198q.03-.143.033-.288a.3.3 0 0 0-.209-.337 3 3 0 0 0-.792-.066q-.484 0-.747.028-.221.018-.421.112a.6.6 0 0 0-.246.23 1.3 1.3 0 0 0-.137.403 1.8 1.8 0 0 0-.058.387.32.32 0 0 0 .054.217c.044.063.109.11.184.13q.5.11 1.013.124.675.041 1.046.085.317.036.615.152c.151.057.281.16.37.293a.96.96 0 0 1 .122.52q-.012.375-.102.74c-.064.357-.187.7-.366 1.017a1.5 1.5 0 0 1-.572.568 2.2 2.2 0 0 1-.779.243q-.561.064-1.126.058-.615 0-.998-.03a2.6 2.6 0 0 1-.679-.136.96.96 0 0 1-.471-.341 1.08 1.08 0 0 1-.17-.647q.003-.291.066-.576l.066-.288zM124.658 41.536q-.082.467-.271.893a1.36 1.36 0 0 1-.414.526c-.183.133-.389.221-.605.26a4.6 4.6 0 0 1-.896.072q-.842 0-1.181-.242-.34-.243-.339-.88.019-.585.142-1.155.098-.536.266-1.05c.085-.255.214-.489.382-.687.175-.194.392-.336.63-.412.318-.1.647-.146.976-.137q.832 0 1.216.204.382.203.382.824a3.3 3.3 0 0 1-.062.587h-.972a2 2 0 0 0 .038-.349.4.4 0 0 0-.034-.209.34.34 0 0 0-.135-.151 1.4 1.4 0 0 0-.588-.09q-.257-.01-.503.07a.57.57 0 0 0-.285.23 1.5 1.5 0 0 0-.174.412q-.067.25-.162.76l-.016.059a6.5 6.5 0 0 0-.13.9.5.5 0 0 0 .031.217q.042.102.124.17a.95.95 0 0 0 .548.115 2.5 2.5 0 0 0 .49-.044.5.5 0 0 0 .277-.131.6.6 0 0 0 .17-.273q.08-.241.124-.493zM126.208 43.288h-1.261l1.12-4.394h1.263zm1.373-5.382h-1.263l.22-.895h1.262zM131.464 41.816a2.3 2.3 0 0 1-.322.813c-.127.19-.306.343-.515.442-.213.095-.44.156-.673.18q-.475.041-.952.037-.98 0-1.377-.26c-.264-.173-.396-.47-.396-.906q.024-.557.161-1.099.109-.548.306-1.073c.097-.258.249-.492.446-.689.203-.192.452-.331.725-.405.367-.096.747-.14 1.127-.132q1.014-.001 1.407.244.394.243.393.88-.033.69-.201 1.362h-3.151a4.4 4.4 0 0 0-.123.758.43.43 0 0 0 .184.395c.21.095.441.134.671.115.28.015.56-.021.826-.107q.259-.105.363-.547zm-.821-1.295q.064-.278.079-.562a.33.33 0 0 0-.184-.348 2.2 2.2 0 0 0-.716-.077 3 3 0 0 0-.577.042.7.7 0 0 0-.322.15.7.7 0 0 0-.187.284q-.09.25-.14.511zM133.741 38.775l-.138.68h.033c.126-.268.339-.479.602-.593.288-.1.59-.147.893-.138.437 0 .753.076.939.229.1.087.178.199.228.325.05.127.07.264.058.4a3.2 3.2 0 0 1-.074.634l-.601 2.975h-1.03l.569-2.86q.043-.2.05-.405a.408.408 0 0 0-.151-.364.9.9 0 0 0-.517-.108q-.63 0-.886.292c-.208.28-.344.612-.396.963l-.498 2.483h-1.028l.915-4.513zM140.634 41.536q-.08.467-.268.893a1.4 1.4 0 0 1-.413.526 1.5 1.5 0 0 1-.606.26 4.6 4.6 0 0 1-.896.072q-.841 0-1.181-.242-.34-.243-.339-.88.018-.585.142-1.155.098-.536.266-1.05a2.1 2.1 0 0 1 .383-.687c.174-.195.391-.337.629-.412.317-.1.647-.146.976-.137q.832 0 1.216.204.382.203.382.824a3.3 3.3 0 0 1-.062.587h-.972q.034-.171.038-.349a.4.4 0 0 0-.034-.209.34.34 0 0 0-.135-.151 1.4 1.4 0 0 0-.588-.09 1.5 1.5 0 0 0-.505.068.58.58 0 0 0-.285.23 1.5 1.5 0 0 0-.173.412q-.069.25-.162.76l-.015.06a6 6 0 0 0-.132.9.5.5 0 0 0 .031.216q.042.104.124.171c.17.093.359.132.548.114q.243.003.482-.042a.6.6 0 0 0 .285-.136.7.7 0 0 0 .165-.268q.08-.241.124-.493zM145.162 41.816a2.3 2.3 0 0 1-.322.813c-.128.19-.306.343-.516.442a2.2 2.2 0 0 1-.673.18q-.475.041-.951.037-.98 0-1.377-.26c-.264-.173-.398-.47-.398-.906q.024-.557.161-1.099.109-.548.306-1.073c.098-.258.249-.492.446-.689.203-.192.452-.331.725-.405.367-.096.747-.14 1.127-.132q1.014-.001 1.407.244.394.243.393.88-.033.69-.201 1.362h-3.148a4.3 4.3 0 0 0-.122.758.42.42 0 0 0 .181.395c.211.095.443.134.674.115.279.015.559-.021.826-.107q.257-.105.362-.547zm-.82-1.295q.064-.278.077-.562a.334.334 0 0 0-.183-.348 2.2 2.2 0 0 0-.715-.077 3 3 0 0 0-.577.042.7.7 0 0 0-.322.15.75.75 0 0 0-.188.284 3.5 3.5 0 0 0-.138.511zM153.304 42.605a1.4 1.4 0 0 1-.426.378 2 2 0 0 1-.525.207q-.276.064-.558.082-.279.016-.657.016-.59 0-.973-.036a2.2 2.2 0 0 1-.664-.161.93.93 0 0 1-.434-.37 1.25 1.25 0 0 1-.151-.659q.007-.354.09-.7.063-.338.18-.663.101-.272.276-.502a1.2 1.2 0 0 1 .435-.354c.202-.094.419-.15.64-.164a1.5 1.5 0 0 1-.258-.341.74.74 0 0 1-.079-.35q.006-.204.05-.404c.053-.29.156-.568.303-.823a1.35 1.35 0 0 1 .472-.473c.2-.111.418-.185.644-.219q.447-.062.899-.057.918 0 1.27.19.354.189.354.766-.018.496-.131.978h-1.009q.068-.292.089-.591a.29.29 0 0 0-.151-.304 2.7 2.7 0 0 0-1.326.029c-.151.065-.242.235-.302.51q-.029.118-.032.238a.5.5 0 0 0 .061.252q.08.134.193.243l1.592 1.704.172-.831h1.009l-.081.418a8 8 0 0 1-.161.651 2.6 2.6 0 0 1-.209.51l.715.774-.707.683zm-2.269-2.372q-.219.03-.419.12a.66.66 0 0 0-.247.21 1.1 1.1 0 0 0-.151.314q-.053.18-.11.485a2 2 0 0 0-.058.412q0 .37.264.455c.336.074.681.103 1.025.087q.413.01.82-.058a1 1 0 0 0 .518-.313zM159.992 43.288h-1.212l1.121-5.247h-1.857l.219-1.03h4.917l-.219 1.03h-1.848zM165.739 41.816a2.5 2.5 0 0 1-.282.813c-.11.19-.266.344-.45.442a1.7 1.7 0 0 1-.587.18q-.415.041-.832.037-.855 0-1.202-.26c-.232-.173-.348-.47-.348-.906a6.3 6.3 0 0 1 .141-1.099 8 8 0 0 1 .267-1.073c.085-.258.217-.493.389-.689.178-.191.395-.33.633-.405.324-.097.658-.141.993-.132q.884-.001 1.229.244.343.243.343.88-.029.692-.176 1.362h-2.759a5 5 0 0 0-.107.758.5.5 0 0 0 .033.222.43.43 0 0 0 .127.174c.184.094.387.133.589.114.244.015.488-.021.72-.107q.225-.105.316-.547zm-.718-1.295q.057-.276.069-.562a.37.37 0 0 0-.029-.203.32.32 0 0 0-.131-.145 1.7 1.7 0 0 0-.626-.077 2.4 2.4 0 0 0-.504.043.56.56 0 0 0-.281.149.8.8 0 0 0-.165.284 4 4 0 0 0-.122.511zM170.309 41.536q-.08.467-.27.893a1.36 1.36 0 0 1-.413.526c-.183.133-.39.221-.606.26a4.6 4.6 0 0 1-.895.072q-.842 0-1.181-.242-.34-.243-.34-.88.019-.585.142-1.155.098-.536.267-1.05a2.1 2.1 0 0 1 .382-.687c.174-.194.391-.336.629-.412.317-.1.646-.146.976-.137q.835 0 1.217.204.381.203.381.824a3.4 3.4 0 0 1-.061.587h-.974q.036-.171.04-.349a.4.4 0 0 0-.034-.21.35.35 0 0 0-.136-.15 1.4 1.4 0 0 0-.587-.09 1.5 1.5 0 0 0-.505.068.58.58 0 0 0-.285.23 1.5 1.5 0 0 0-.173.412q-.07.25-.162.76l-.016.06a6 6 0 0 0-.131.9.5.5 0 0 0 .031.215.4.4 0 0 0 .123.172c.17.093.36.132.549.114q.244.005.485-.037a.6.6 0 0 0 .285-.136.66.66 0 0 0 .166-.268q.08-.241.124-.494zM172.753 39.557h.029a1.1 1.1 0 0 1 .526-.577c.252-.098.517-.143.782-.134q.572 0 .821.222a.84.84 0 0 1 .199.317 1 1 0 0 1 .051.39 4 4 0 0 1-.063.617l-.527 2.896h-.908l.506-2.786q.037-.196.043-.394a.5.5 0 0 0-.027-.197.4.4 0 0 0-.105-.158.74.74 0 0 0-.454-.105q-.549 0-.774.284a2.2 2.2 0 0 0-.347.938l-.435 2.418h-.901l1.136-6.277h.899zM177.677 38.775l-.138.68h.033c.126-.268.34-.479.603-.593.288-.1.592-.147.895-.138q.654 0 .94.229a.88.88 0 0 1 .286.726 3.3 3.3 0 0 1-.074.634l-.603 2.975h-1.03l.581-2.863q.041-.2.048-.404a.4.4 0 0 0-.03-.203.4.4 0 0 0-.121-.162.9.9 0 0 0-.52-.107q-.628 0-.886.291a2.1 2.1 0 0 0-.397.964l-.499 2.484h-1.031l.917-4.514zM184.522 38.967c.229.157.342.445.342.854q-.02.601-.138 1.189-.101.572-.277 1.121c-.08.252-.208.481-.375.672a1.34 1.34 0 0 1-.619.37q-.498.127-1.01.114-.885 0-1.231-.243-.345-.241-.344-.853.023-.6.149-1.181.101-.576.277-1.13c.081-.251.208-.48.375-.671.175-.182.388-.31.619-.37a3.6 3.6 0 0 1 1.01-.114q.88 0 1.222.242m-1.894.642a.63.63 0 0 0-.304.221 1.4 1.4 0 0 0-.195.43 8 8 0 0 0-.169.765 5.4 5.4 0 0 0-.128.9.5.5 0 0 0 .03.245.5.5 0 0 0 .135.193c.186.093.391.133.594.114q.262.01.517-.064a.64.64 0 0 0 .305-.216 1.3 1.3 0 0 0 .191-.417q.074-.263.172-.755.095-.453.119-.917a.5.5 0 0 0-.03-.246.5.5 0 0 0-.134-.196 1.04 1.04 0 0 0-.585-.12 1.7 1.7 0 0 0-.518.063M186.124 43.288h-1.26l1.591-6.277h1.262zM191.37 38.967c.228.157.341.445.341.854q-.02.601-.138 1.189-.101.572-.277 1.121c-.08.252-.208.481-.375.672a1.33 1.33 0 0 1-.618.37 3.6 3.6 0 0 1-1.01.114q-.886 0-1.232-.243-.345-.241-.344-.853.024-.6.149-1.181.101-.576.277-1.13c.081-.251.209-.48.375-.671a1.34 1.34 0 0 1 .62-.37q.498-.128 1.01-.114c.58 0 .995.08 1.222.242m-1.888.642a.63.63 0 0 0-.304.221 1.4 1.4 0 0 0-.195.43 8 8 0 0 0-.169.765 5.4 5.4 0 0 0-.127.9.5.5 0 0 0 .03.245.47.47 0 0 0 .134.193 1.1 1.1 0 0 0 .594.114q.263.01.518-.064a.64.64 0 0 0 .304-.216 1.3 1.3 0 0 0 .191-.417q.075-.263.173-.755.095-.453.12-.917a.54.54 0 0 0-.03-.246.5.5 0 0 0-.136-.196 1.04 1.04 0 0 0-.585-.12 1.7 1.7 0 0 0-.518.063M192.549 45a1.4 1.4 0 0 1-.442-.132.7.7 0 0 1-.291-.285 1 1 0 0 1-.103-.475q.005-.281.077-.554h.896a1.2 1.2 0 0 0-.038.29.34.34 0 0 0 .026.181.3.3 0 0 0 .114.136c.159.064.329.09.498.08q.257.005.509-.043a.76.76 0 0 0 .323-.14.7.7 0 0 0 .2-.276q.092-.225.14-.467l.16-.825h-.022a1.3 1.3 0 0 1-.597.529c-.25.096-.513.144-.778.14q-.692 0-.969-.268a1.1 1.1 0 0 1-.223-.374 1.1 1.1 0 0 1-.057-.44 5.6 5.6 0 0 1 .128-1.007q.122-.62.233-1.004c.069-.248.176-.483.315-.693a1.36 1.36 0 0 1 .56-.48c.28-.121.58-.179.881-.168.254-.012.507.04.74.152.096.055.18.134.243.23a.8.8 0 0 1 .126.322h.03l.091-.653h.958l-.851 4.328q-.083.504-.28.97a1.6 1.6 0 0 1-.42.578 1.5 1.5 0 0 1-.63.304m-.304-5.374a.6.6 0 0 0-.29.19 1.3 1.3 0 0 0-.209.384 5 5 0 0 0-.175.668v.009a6 6 0 0 0-.14.933.7.7 0 0 0 .031.246q.04.119.121.21a.75.75 0 0 0 .532.153c.19.006.38-.026.56-.095a.77.77 0 0 0 .341-.281q.133-.2.195-.437.067-.252.16-.74a4 4 0 0 0 .082-.668.577.577 0 0 0-.175-.48q-.174-.15-.607-.152a1.5 1.5 0 0 0-.435.049zM196.277 45l.174-.791.066.009q.075.014.153.017c.14.003.278-.03.402-.097a1 1 0 0 0 .29-.253q.116-.152.199-.326a7 7 0 0 0 .179-.432l.017-.034h-.507l-.506-4.37h1.071l.315 3.721h.016l1.635-3.72h1.061l-2.09 4.544q-.216.474-.373.758a2.6 2.6 0 0 1-.378.515c-.15.157-.33.28-.53.363M205.546 39.707h2.62l-.197.987h-2.619l-.526 2.594h-1.129l1.247-6.277h3.889l-.204 1.03h-2.76zM211.959 41.816a2.5 2.5 0 0 1-.281.813 1.2 1.2 0 0 1-.45.442 1.7 1.7 0 0 1-.588.18q-.415.041-.832.037-.854 0-1.202-.26c-.231-.173-.346-.47-.346-.906q.021-.557.141-1.099.094-.548.267-1.073c.085-.258.218-.492.389-.689.178-.192.395-.33.633-.405.323-.097.657-.141.992-.132q.886-.001 1.229.244.343.243.343.88-.029.69-.175 1.362h-2.754a5 5 0 0 0-.107.758.5.5 0 0 0 .032.222.44.44 0 0 0 .128.174c.183.094.385.133.587.114.244.015.489-.021.721-.107q.226-.105.317-.547zm-.717-1.295q.056-.276.069-.562a.37.37 0 0 0-.03-.203.32.32 0 0 0-.131-.145 1.7 1.7 0 0 0-.626-.077 2.3 2.3 0 0 0-.503.043.57.57 0 0 0-.281.149.8.8 0 0 0-.164.284 4 4 0 0 0-.122.511zM215.822 39.997a1 1 0 0 0 .023-.203c0-.157-.048-.246-.141-.281a2.65 2.65 0 0 0-1.221.042q-.212.094-.29.494-.02.097-.022.196a.23.23 0 0 0 .042.148q.046.064.118.08.348.075.704.077h.206q.366.018.576.043.204.024.394.116c.118.056.219.15.289.27a1 1 0 0 1 .107.49q-.003.25-.053.493a1.8 1.8 0 0 1-.282.7 1.3 1.3 0 0 1-.469.405 1.9 1.9 0 0 1-.604.179q-.383.045-.769.042c-.301 0-.538 0-.704-.017a1.5 1.5 0 0 1-.465-.102.66.66 0 0 1-.321-.276 1 1 0 0 1-.114-.514q.005-.276.06-.545h.963a2 2 0 0 0-.031.324.34.34 0 0 0 .029.19.3.3 0 0 0 .124.136q.296.093.602.072c.249.016.499-.017.737-.097q.212-.098.282-.497a1.5 1.5 0 0 0 .031-.238.3.3 0 0 0-.053-.171.26.26 0 0 0-.135-.101 2.1 2.1 0 0 0-.721-.093q-.894-.02-1.221-.175a.56.56 0 0 1-.254-.249.66.66 0 0 1-.074-.367q.01-.302.076-.596c.04-.253.131-.493.267-.7.116-.168.271-.298.448-.375q.271-.117.562-.144.302-.03.782-.03c.234 0 .431 0 .588.022q.233.02.453.105c.138.05.259.145.348.273a.86.86 0 0 1 .129.501 2 2 0 0 1-.038.365zM217.568 39.091h.546l.207-.94h1.039l-.205.94h1.659l-.173.759h-1.661l-.472 2.125v.016a2 2 0 0 0-.049.3.21.21 0 0 0 .082.182c.089.045.19.064.29.055q.354.001.482-.185c.106-.177.178-.372.212-.574l.024-.117h.914q-.083.41-.244.798c-.076.183-.191.35-.338.489a1.2 1.2 0 0 1-.496.265 2.7 2.7 0 0 1-.723.083q-.702 0-.987-.159-.285-.158-.285-.582.007-.285.075-.561l.47-2.133h-.545zM221.505 43.288h-1.262l1.122-4.394h1.261zm1.372-5.382h-1.263l.222-.895h1.26zM224.979 43.288h-1.508l-.373-4.565h1.026l.23 3.818h.025l1.662-3.818h1.051zM229.493 42.672h-.025c-.072.133-.172.25-.294.34a1.1 1.1 0 0 1-.38.183q-.194.054-.395.072-.192.017-.448.017a2.36 2.36 0 0 1-1.072-.19q-.358-.193-.358-.736.003-.25.059-.493.17-.774.628-1.071.459-.298 1.33-.298.388-.015.767.067.167.046.298.157a.6.6 0 0 1 .17.285h.034l.12-.578q.063-.256.077-.519a.38.38 0 0 0-.175-.355 1.4 1.4 0 0 0-.644-.104 1.5 1.5 0 0 0-.664.116.68.68 0 0 0-.314.505h-1.069c.05-.269.157-.524.314-.748.126-.176.296-.317.493-.407.193-.085.399-.138.609-.157q.392-.038.785-.035.942 0 1.346.2.404.198.401.811a3.5 3.5 0 0 1-.087.707l-.595 2.796h-1.068zm-1.495-1.339q-.25.106-.344.532a1.3 1.3 0 0 0-.034.28.31.31 0 0 0 .187.332c.221.063.451.088.681.076.265.013.529-.03.776-.127q.264-.127.358-.562a1 1 0 0 0 .025-.195.34.34 0 0 0-.213-.366 2.1 2.1 0 0 0-.665-.076 2.1 2.1 0 0 0-.774.101zM232.347 43.288h-1.262l1.593-6.277h1.26zM13.109 7.642a2.5 2.5 0 0 0-.134.416.38.38 0 0 0 .049.33.36.36 0 0 0 .289.152q.235.025.472.018h3.731q.38-.001.753.068c1.231.227 1.646 1.125 1.795 1.945a4.76 4.76 0 0 1-.149 2.174c-.094.33-.206.652-.325.973q-2.055 5.553-4.12 11.103a7098 7098 0 0 0-3.426 9.232q-1.587 4.271-3.185 8.538-.071.18-.145.361c-.072.21-.208.39-.388.512a.97.97 0 0 1-.606.17H.808a1.5 1.5 0 0 1-.56-.059.3.3 0 0 1-.208-.153.32.32 0 0 1-.022-.263q.1-.328.248-.634C.96 41.06 1.664 39.6 2.357 38.133q2.491-5.25 4.98-10.506 2.043-4.317 4.075-8.62c.757-1.59 1.523-3.18 2.283-4.787q.112-.22.186-.455a.53.53 0 0 0-.008-.385.5.5 0 0 0-.266-.269 2.6 2.6 0 0 0-.812-.248c-.455-.07-.911-.08-1.368-.106a6.2 6.2 0 0 1-1.354-.194 3 3 0 0 1-1.352-.772 2.6 2.6 0 0 1-.654-1.086 2.7 2.7 0 0 1-.073-1.277c.057-.405.184-.797.373-1.157.817-1.547 1.576-3.126 2.487-4.619q.466-.768 1.008-1.481c.33-.438.716-.828 1.148-1.159.799-.513.908-.65 1.87-.87a7.7 7.7 0 0 1 1.409-.136h30.236c.241-.02.484.013.711.097.09.041.161.114.202.206.04.092.046.196.018.292q-.045.19-.12.37c-.22.511-.422 1.02-.633 1.532-.03.075-.066.147-.099.227a.68.68 0 0 1-.256.34.64.64 0 0 1-.402.114H33.503q-8.547 0-17.087-.016c-.267 0-.537 0-.805.012-.545 0-1.058.454-1.295 1.17"/><path fill="#212121" d="M31.572 25.967a1.93 1.93 0 0 0-.948.253 2 2 0 0 0-.72.692 10 10 0 0 0-.188.306c-1.411 2.299-2.8 4.614-4.288 6.86-.966 1.459-1.967 2.892-3.066 4.246a15.7 15.7 0 0 1-5.293 4.334 9.5 9.5 0 0 1-3.053.875c-1.292.156-2.41.095-3.704.093a1 1 0 0 1-.278-.038.28.28 0 0 1-.158-.136.3.3 0 0 1-.024-.213q.11-.407.265-.8c.147-.389.195-.452.321-.796.289-.78.434-.947 1.114-.947h2.138c1.162 0 2.002-.384 2.88-.963q.375-.248.722-.538a20.2 20.2 0 0 0 3.114-3.294 29.4 29.4 0 0 0 3.628-6.355c2.12-4.922 4.054-9.922 6.001-14.92.521-1.34 1.051-2.675 1.576-4.014q.177-.477.45-.904a2.87 2.87 0 0 1 1.607-1.191 4.7 4.7 0 0 1 1.34-.195h9.359a.96.96 0 0 0 .509-.153c.153-.097.277-.237.36-.403q.11-.215.2-.44l1.537-3.555q.485-1.107.983-2.21c.04-.089.078-.177.124-.263a1.23 1.23 0 0 1 .47-.528 1.16 1.16 0 0 1 .672-.17c1.468.013 2.933.013 4.401.013.266-.003.53.042.782.133a.8.8 0 0 1 .294.15.8.8 0 0 1 .21.261.85.85 0 0 1 .043.666 3.2 3.2 0 0 1-.341.8l-1.1 1.983q-1.844 3.309-3.692 6.615-.255.469-.56.904c-.784 1.094-1.609 1.345-3.174 1.345h-1.696c-2.373 0-3.474.02-5.851.03a5.3 5.3 0 0 0-1.433.194c-.805.23-1.5.76-1.954 1.49a5 5 0 0 0-.498.99c-.384 1.03-.758 2.064-1.133 3.095q-.049.137-.083.28a.44.44 0 0 0 .05.399q.06.085.153.132a.4.4 0 0 0 .195.041q.232.026.467.02h5.712c.172-.011.344.01.508.064.135.063.217.158.163.3a8 8 0 0 1-.245.633c-.322.74-.652 1.477-.969 2.218-.247.577-.482 1.162-.723 1.743q-.068.182-.154.355a.94.94 0 0 1-.329.373.9.9 0 0 1-.466.145h-3.323"/></svg>